HIERARCHY
ROOT Hips
{
	OFFSET 0.000000 0.000000 0.000000
	CHANNELS 6 Xposition Yposition Zposition Xrotation Yrotation Zrotation
	JOINT LeftUpLeg_virtual
	{
		OFFSET 0.000000 0.000000 0.000000
		CHANNELS 3 Xrotation Yrotation Zrotation
		JOINT LeftUpLeg
		{
			OFFSET 15.427100 -6.655098 0.678600
			CHANNELS 3 Xrotation Yrotation Zrotation
			JOINT LeftLeg
			{
				OFFSET 4.081073 -39.591068 13.024000
				CHANNELS 3 Xrotation Yrotation Zrotation
				JOINT LeftFoot
				{
					OFFSET -4.081074 -37.707932 -15.979700
					CHANNELS 3 Xrotation Yrotation Zrotation
					JOINT LeftToeBase
					{
						OFFSET 5.346399 -15.068900 20.645000
						CHANNELS 3 Xrotation Yrotation Zrotation
						JOINT LeftToe_End
						{
							OFFSET 2.754700 0.931300 11.300900
							CHANNELS 3 Xrotation Yrotation Zrotation
							End Site
							{
								OFFSET 0 0 0
							}
						}
					}
				}
			}
		}
	}
	JOINT RightUpLeg_virtual
	{
		OFFSET 0.000000 0.000000 0.000000
		CHANNELS 3 Xrotation Yrotation Zrotation
		JOINT RightUpLeg
		{
			OFFSET -15.569500 -6.655098 0.678600
			CHANNELS 3 Xrotation Yrotation Zrotation
			JOINT RightLeg
			{
				OFFSET -4.081825 -39.591045 13.023800
				CHANNELS 3 Xrotation Yrotation Zrotation
				JOINT RightFoot
				{
					OFFSET 4.081824 -37.707954 -15.979600
					CHANNELS 3 Xrotation Yrotation Zrotation
					JOINT RightToeBase
					{
						OFFSET -5.346400 -15.068900 20.645000
						CHANNELS 3 Xrotation Yrotation Zrotation
						JOINT RightToe_End
						{
							OFFSET -2.754700 0.931300 11.300900
							CHANNELS 3 Xrotation Yrotation Zrotation
							End Site
							{
								OFFSET 0 0 0
							}
						}
					}
				}
			}
		}
	}
	JOINT Spine_virtual
	{
		OFFSET 0.000000 0.000000 0.000000
		CHANNELS 3 Xrotation Yrotation Zrotation
		JOINT Spine
		{
			OFFSET -0.279200 12.230698 -2.892100
			CHANNELS 3 Xrotation Yrotation Zrotation
			JOINT Spine1
			{
				OFFSET -0.232667 10.192268 -1.242267
				CHANNELS 3 Xrotation Yrotation Zrotation
				JOINT Spine1_split
				{
					OFFSET -0.232667 10.192268 -1.242267
					CHANNELS 3 Xrotation Yrotation Zrotation
					JOINT Spine2
					{
						OFFSET -0.232667 10.192268 -1.242267
						CHANNELS 3 Xrotation Yrotation Zrotation
						JOINT Neck_virtual
						{
							OFFSET 0.000000 0.000000 0.000000
							CHANNELS 3 Xrotation Yrotation Zrotation
							JOINT Neck
							{
								OFFSET -0.418800 17.814194 8.416900
								CHANNELS 3 Xrotation Yrotation Zrotation
								JOINT Head
								{
									OFFSET 0.000000 7.031097 3.806800
									CHANNELS 3 Xrotation Yrotation Zrotation
									JOINT HeadTop_End
									{
										OFFSET 0.000000 24.646606 12.978600
										CHANNELS 3 Xrotation Yrotation Zrotation
										End Site
										{
											OFFSET 0 0 0
										}
									}
								}
							}
						}
						JOINT LeftShoulder_virtual
						{
							OFFSET 0.000000 0.000000 0.000000
							CHANNELS 3 Xrotation Yrotation Zrotation
							JOINT LeftShoulder
							{
								OFFSET 8.476499 7.247704 -3.868750
								CHANNELS 3 Xrotation Yrotation Zrotation
								JOINT LeftShoulder_split
								{
									OFFSET 8.476499 7.247704 -3.868750
									CHANNELS 3 Xrotation Yrotation Zrotation
									JOINT LeftArm
									{
										OFFSET 9.308998 -2.777710 0.208600
										CHANNELS 3 Xrotation Yrotation Zrotation
										JOINT LeftForeArm
										{
											OFFSET 29.972298 0.000000 0.000000
											CHANNELS 3 Xrotation Yrotation Zrotation
											JOINT LeftHand
											{
												OFFSET 26.026505 0.000000 0.000000
												CHANNELS 3 Xrotation Yrotation Zrotation
												End Site
												{
													OFFSET 0 0 0
												}
											}
										}
									}
								}
							}
						}
						JOINT RightShoulder_virtual
						{
							OFFSET 0.000000 0.000000 0.000000
							CHANNELS 3 Xrotation Yrotation Zrotation
							JOINT RightShoulder
							{
								OFFSET -7.570500 7.247704 -3.868750
								CHANNELS 3 Xrotation Yrotation Zrotation
								JOINT RightShoulder_split
								{
									OFFSET -7.570500 7.247704 -3.868750
									CHANNELS 3 Xrotation Yrotation Zrotation
									JOINT RightArm
									{
										OFFSET -9.308998 -2.777710 0.208500
										CHANNELS 3 Xrotation Yrotation Zrotation
										JOINT RightForeArm
										{
											OFFSET -29.972300 0.000000 0.000000
											CHANNELS 3 Xrotation Yrotation Zrotation
											JOINT RightHand
											{
												OFFSET -26.026505 0.000000 0.000000
												CHANNELS 3 Xrotation Yrotation Zrotation
												End Site
												{
													OFFSET 0 0 0
												}
											}
										}
									}
								}
							}
						}
					}
				}
			}
		}
	}
}
MOTION
Frames: 5
Frame Time: 0.03333333
9.956486 73.514931 -4.440754 0.000000 0.000000 0.000000 26.443590 -83.870427 28.856825 -30.242425 -7.393168 23.547043 46.520767 -6.437893 12.913728 -18.484922 -5.460480 -27.456756 -1.702320 0.420963 -2.522790 0.000000 0.000000 0.000000 18.275681 -82.775991 21.953013 -11.455516 6.962455 -33.863576 41.787951 8.642339 -11.610222 -24.822982 -1.913253 28.375106 -12.931226 1.492654 1.328378 0.000000 0.000000 0.000000 24.824124 -78.918943 26.499577 1.824391 5.359673 2.810515 0.333777 3.485315 1.153324 1.440525 -0.944100 0.757045 0.000000 0.000000 0.000000 0.885927 2.964980 0.976878 -3.502838 7.438254 -1.341535 2.618148 41.465136 -5.367862 0.000000 0.000000 0.000000 1.004661 3.408978 1.113316 1.449575 11.352807 -10.354494 -3.489857 -2.026412 -2.158795 -9.900194 10.591259 -65.222849 -178.907667 -63.322568 -176.802425 0.000000 0.000000 0.000000 1.881397 3.588571 0.663165 1.348565 9.384631 9.983482 0.654492 3.333051 2.211693 -13.231175 34.503411 48.132476 -179.640177 71.039561 179.289133 0.000000 0.000000 0.000000 
9.869850 73.286194 -4.270020 0.000000 0.000000 0.000000 19.332914 -83.592834 21.469846 -30.848502 -6.766181 23.167004 46.705865 -6.786040 13.506428 -18.456245 -6.687009 -26.369313 -2.366102 0.501569 -2.608748 0.000000 0.000000 0.000000 12.605262 -81.301996 15.756989 -10.781432 5.401535 -33.221562 42.543114 6.940143 -11.610678 -25.061113 -3.881729 27.310937 -12.401698 1.592028 1.836479 0.000000 0.000000 0.000000 22.256107 -78.167171 23.435142 1.538901 5.543218 2.842754 0.264235 3.593465 1.121666 1.571451 -1.596393 0.805032 0.000000 0.000000 0.000000 0.817365 3.113551 0.936174 -2.801569 6.923712 -1.390911 2.872068 39.984890 -4.983618 0.000000 0.000000 0.000000 1.018968 3.458669 1.123124 1.303931 11.070432 -9.234798 -2.834576 -1.644126 -2.997906 -8.080119 8.135495 -65.530153 -179.521318 -62.889745 -177.348034 0.000000 0.000000 0.000000 1.596140 3.686669 0.677629 1.354363 8.878032 9.168660 0.455367 3.975730 2.253954 -12.335290 33.134631 48.103889 -178.767771 69.770942 178.352099 0.000000 0.000000 0.000000 
9.797583 75.830421 -4.369133 0.000000 0.000000 0.000000 11.122651 -80.787915 12.955115 -30.322693 -5.504252 21.851319 42.410554 -8.248867 13.253585 -15.242108 -9.377314 -26.131759 -2.667866 0.463264 -2.466731 0.000000 0.000000 0.000000 8.871602 -78.135069 11.653560 -10.581724 3.580269 -31.887455 41.878714 5.497749 -11.303654 -19.989247 -4.471894 26.598587 -17.065453 1.168999 3.050160 0.000000 0.000000 0.000000 17.691329 -76.185405 18.517350 1.099060 5.485413 2.818587 0.068792 3.617015 0.995843 1.387791 -2.316627 0.750399 0.000000 0.000000 0.000000 0.737917 3.153751 0.813737 -2.007628 6.479859 -1.429286 3.051606 37.810240 -4.175178 0.000000 0.000000 0.000000 0.900129 3.426383 1.023868 1.126280 10.276771 -7.801394 -1.809881 -1.057480 -3.458046 -6.303045 4.255992 -64.041486 -179.949216 -62.263800 -177.878466 0.000000 0.000000 0.000000 1.236890 3.640377 0.602295 1.301107 8.333245 8.260093 0.142577 4.407836 2.121587 -10.778545 30.621514 47.515536 -178.456492 67.446759 177.981616 0.000000 0.000000 0.000000 
9.771318 80.456978 -4.624802 0.000000 0.000000 0.000000 7.047067 -75.900204 8.646166 -28.487433 -3.603017 20.014987 34.640568 -10.062892 11.794260 -9.236647 -12.718965 -26.041812 -2.542238 0.309549 -2.058232 0.000000 0.000000 0.000000 6.673711 -73.883263 9.306606 -10.905951 1.907368 -30.191499 40.334927 4.783465 -10.745756 -11.320188 -3.594640 26.650194 -24.646823 0.131618 4.479510 0.000000 0.000000 0.000000 13.064526 -72.999846 13.871353 0.669446 5.214904 2.724779 -0.158131 3.553770 0.832937 0.990416 -2.552301 0.712307 0.000000 0.000000 0.000000 0.620964 3.089017 0.665747 -1.297811 6.128033 -1.547731 3.085463 35.159041 -3.125539 0.000000 0.000000 0.000000 0.678550 3.326160 0.875755 0.987658 9.076346 -6.454862 -0.767269 -0.475194 -3.591520 -4.808469 -0.367009 -61.287567 179.903180 -61.684449 -178.210509 0.000000 0.000000 0.000000 0.915056 3.485192 0.467667 1.192845 7.817841 7.359298 -0.345834 4.509137 1.814943 -8.718438 27.284939 46.208491 -178.628558 65.097420 178.087907 0.000000 0.000000 0.000000 
9.696309 85.998955 -5.130554 0.000000 0.000000 0.000000 5.596948 -70.204379 7.027644 -25.693374 -1.014983 18.096979 25.820852 -10.710429 9.422604 -2.450751 -14.870628 -24.668791 -1.761562 0.076872 -1.724600 0.000000 0.000000 0.000000 5.154747 -68.817366 7.916899 -11.532424 0.206605 -28.121359 38.237445 4.206569 -10.067012 -2.894536 -1.983629 26.313905 -30.437573 -1.160754 5.546142 0.000000 0.000000 0.000000 9.167453 -68.936970 10.304002 0.414538 4.753556 2.573893 -0.280902 3.407772 0.681422 0.552655 -2.297103 0.712833 0.000000 0.000000 0.000000 0.465723 2.926962 0.538146 -0.862328 5.823383 -1.785404 2.958050 32.359613 -2.058444 0.000000 0.000000 0.000000 0.477822 3.162420 0.722214 0.957706 7.601910 -5.672875 -0.159597 -0.124706 -3.401581 -3.653656 -4.997021 -58.070917 -179.981113 -61.389098 -178.371469 0.000000 0.000000 0.000000 0.744120 3.279916 0.350754 1.059716 7.467971 6.597510 -0.757177 4.405512 1.279689 -6.616849 23.559057 44.447521 -179.066837 63.567806 178.478526 0.000000 0.000000 0.000000 
